<svg width="32" height="43" viewBox="0 0 32 43" fill="none" xmlns="http://www.w3.org/2000/svg">
<g clip-path="url(#clip0_37_379)">
<path d="M27.8125 8.9H23.875C23.875 4.259 20.3509 0.5 16 0.5C11.6491 0.5 8.125 4.259 8.125 8.9H4.1875C2.02187 8.9 0.25 10.79 0.25 13.1V38.3C0.25 40.61 2.02187 42.5 4.1875 42.5H27.8125C29.9781 42.5 31.75 40.61 31.75 38.3V13.1C31.75 10.79 29.9781 8.9 27.8125 8.9ZM12.0625 17.3C12.0625 18.455 11.1766 19.4 10.0938 19.4C9.01094 19.4 8.125 18.455 8.125 17.3V13.1H12.0625V17.3ZM16 4.7C18.1656 4.7 19.9375 6.59 19.9375 8.9H12.0625C12.0625 6.59 13.8344 4.7 16 4.7ZM23.875 17.3C23.875 18.455 22.9891 19.4 21.9062 19.4C20.8234 19.4 19.9375 18.455 19.9375 17.3V13.1H23.875V17.3Z" fill="#B5DCFF"/>
</g>
<defs>
<clipPath id="clip0_37_379">
<rect width="31.5" height="42" fill="white" transform="translate(0.25 0.5)"/>
</clipPath>
</defs>
</svg>
